<svg id="Capa_1" enable-background="new 0 0 512 512" height="512" viewBox="0 0 512 512" width="512" xmlns="http://www.w3.org/2000/svg"><g><path d="m435.473 0h-14.473c-52.808 0-96.636 40.185-103.931 91h-61.069-61.069c-7.295-50.815-51.123-91-103.931-91h-14.473l-15.527 452 30 30h165 165l30-30z" fill="#c86e59"/><path d="m451 452-15.527-452h-14.473c-52.808 0-96.636 40.185-103.931 91h-61.069v391h165z" fill="#a34f3e"/><path d="m185.395 206.605-19.395-19.394-19.395 19.394-21.21-21.21 40.605-40.606 40.605 40.606z" fill="#5b362a"/><path d="m256 271c0 24.853-20.147 45-45 45v30c0 24.814 20.186 45 45 45s45-20.186 45-45v-30c-24.853 0-45-20.147-45-45z" fill="#ff6c6c"/><path d="m301 346v-30c-24.853 0-45-20.147-45-45v120c24.814 0 45-20.186 45-45z" fill="#ff435b"/><path d="m256 452h-195v60h195 195v-60z" fill="#80d4ff"/><path d="m256 452h195v60h-195z" fill="#66b3ff"/><path d="m365.395 206.605-19.395-19.394-19.395 19.394-21.21-21.21 40.605-40.606 40.605 40.606z" fill="#38211a"/><path d="m331 256v15c0 16.538-13.462 30-30 30s-30-13.462-30-30v-15h-15-15v15c0 16.538-13.462 30-30 30s-30-13.462-30-30v-15h-30v15c0 33.091 26.909 60 60 60 18.007 0 33.995-8.134 45-20.729 11.005 12.595 26.993 20.729 45 20.729 33.091 0 60-26.909 60-60v-15z" fill="#5b362a"/><path d="m361 271v-15h-30v15c0 16.538-13.462 30-30 30s-30-13.462-30-30v-15h-15v54.271c11.005 12.595 26.993 20.729 45 20.729 33.091 0 60-26.909 60-60z" fill="#38211a"/><path d="m256 198.578c-27.759 0-45 10.503-45 27.422 0 24.814 20.186 45 45 45s45-20.186 45-45c0-16.919-17.241-27.422-45-27.422z" fill="#5b362a"/><path d="m301 226c0-16.919-17.241-27.422-45-27.422v72.422c24.814 0 45-20.186 45-45z" fill="#38211a"/></g></svg>